<?xml version="1.0" encoding="UTF-8"?>
<svg width="1200pt" height="1200pt" version="1.1" viewBox="0 0 1200 1200" xmlns="http://www.w3.org/2000/svg">
 <path d="m247.41 486c0.050781-15.605 5.2266-30.766 14.727-43.145 9.5-12.383 22.805-21.301 37.867-25.387v-268.5c0.023438-17.477 6.918-34.242 19.195-46.68 12.277-12.434 28.957-19.543 46.43-19.789h212.34c17.613 0.023438 34.496 7.0391 46.941 19.5 12.445 12.465 19.434 29.355 19.434 46.969v268.5c22.355 6.1055 40.336 22.719 48.195 44.52 7.8555 21.805 4.6016 46.066-8.7227 65.031-13.324 18.961-35.047 30.246-58.223 30.246s-44.898-11.285-58.223-30.246c-13.324-18.965-16.578-43.227-8.7227-65.031 7.8594-21.801 25.84-38.414 48.195-44.52v-268.5c0-7.668-3.0391-15.02-8.4531-20.449-5.4102-5.4336-12.754-8.4961-20.422-8.5195h-212.34c-7.5273 0.24219-14.668 3.3984-19.914 8.8047-5.2461 5.4023-8.1914 12.633-8.2109 20.164v268.41c17.191 4.6211 32.023 15.516 41.578 30.535 9.5508 15.023 13.125 33.078 10.016 50.605-3.1055 17.527-12.672 33.254-26.805 44.074-14.133 10.82-31.809 15.953-49.539 14.383-17.73-1.5742-34.23-9.7344-46.238-22.871-12.012-13.137-18.66-30.301-18.637-48.102zm513.19 631.5h287.06l-143.53-138.94zm234.38-831.94c-0.44531-4.6562-2.6133-8.9805-6.082-12.121-3.4727-3.1406-7.9883-4.8672-12.668-4.8477h-53.344v675.94l150 145.5zm-109.59-16.969h-53.062c-4.6797-0.019531-9.1953 1.707-12.668 4.8477-3.4688 3.1406-5.6367 7.4648-6.082 12.121l-78.562 804.47 150-145.5zm-287.91 579.28c0 42.441-16.859 83.148-46.871 113.16-30.012 30.012-70.719 46.871-113.16 46.871s-83.148-16.859-113.16-46.871c-30.012-30.012-46.871-70.719-46.871-113.16s16.859-83.148 46.871-113.16c30.012-30.012 70.719-46.871 113.16-46.871 42.426 0.050781 83.102 16.926 113.11 46.926 30 30.004 46.875 70.68 46.926 113.11zm-58.312-61.406-29.531-23.062-81.938 104.91-39.75-41.719-27.188 25.781 54.75 57.562c3.543 3.7188 8.457 5.8203 13.594 5.8125h0.9375c5.457-0.26953 10.523-2.9062 13.875-7.2188zm160.88 331.03h-554.53c-5.2891-0.011719-10.332-2.2578-13.875-6.1875-3.5625-3.9219-5.2969-9.1641-4.7812-14.438l79.406-811.31c0.44531-4.6562 2.6133-8.9805 6.082-12.121 3.4727-3.1406 7.9883-4.8672 12.668-4.8477h37.5v125.16c-27.293 16.496-45.973 44.141-51.09 75.621-5.1172 31.477 3.8398 63.617 24.5 87.91 20.664 24.293 50.949 38.293 82.84 38.293s62.176-14 82.84-38.293c20.66-24.293 29.617-56.434 24.5-87.91-5.1172-31.48-23.797-59.125-51.09-75.621v-125.16h44.156v-75h37.5v75h112.69v124.41c-27.258 16.492-45.902 44.117-51.004 75.562-5.1016 31.445 3.8555 63.547 24.5 87.812 20.645 24.262 50.895 38.246 82.754 38.246s62.109-13.984 82.754-38.246c20.645-24.266 29.602-56.367 24.5-87.812-5.1016-31.445-23.746-59.07-51.004-75.562v-124.41h44.156v-119.62c0-7.668-3.0391-15.02-8.4531-20.449-5.4102-5.4336-12.754-8.4961-20.422-8.5195v-37.5c17.613 0.023438 34.496 7.0391 46.941 19.5 12.445 12.465 19.434 29.355 19.434 46.969v119.62h15.938c-1.6016 4.293-2.6719 8.7617-3.1875 13.312l-79.219 811.31c-0.79297 8.2148 0.23047 16.504 3 24.281zm-65.062-269.62c0-52.387-20.812-102.63-57.855-139.68s-87.289-57.855-139.68-57.855-102.63 20.812-139.68 57.855-57.855 87.289-57.855 139.68 20.812 102.63 57.855 139.68 87.289 57.855 139.68 57.855c52.375-0.050781 102.59-20.875 139.62-57.91s57.859-87.246 57.91-139.62z"/>
</svg>
