<?xml version="1.0" encoding="UTF-8"?>
<svg width="1200pt" height="1200pt" version="1.1" viewBox="0 0 1200 1200" xmlns="http://www.w3.org/2000/svg">
 <path d="m914.93 952.88v-371.82c-17.277 4.4531-35.434 4.1758-52.566-0.80469-17.133-4.9805-32.609-14.48-44.809-27.5-18.793 20.066-45.059 31.453-72.551 31.453-27.492 0-53.758-11.387-72.551-31.453-18.754 20.062-44.988 31.449-72.453 31.449s-53.699-11.387-72.453-31.449c-18.793 20.066-45.059 31.453-72.551 31.453-27.492 0-53.758-11.387-72.551-31.453-12.199 13.02-27.676 22.52-44.809 27.5-17.133 4.9805-35.289 5.2578-52.566 0.80469v371.82h366.98v-316.82h189.55v316.82zm-667.19 27.082h704.52v67.895h-704.52zm626.2-753.55v-74.262h-547.88v74.262zm-56.387 27.082h145.1v231.16c-0.074219 19.219-7.7422 37.625-21.336 51.211-13.59 13.586-32.004 21.242-51.219 21.309-19.215-0.066407-37.625-7.7305-51.215-21.312-13.59-13.586-21.258-31.992-21.328-51.207-0.074219 19.219-7.7422 37.625-21.336 51.211-13.59 13.586-32.004 21.242-51.223 21.309-19.215-0.066407-37.621-7.7305-51.211-21.312-13.59-13.586-21.258-31.992-21.332-51.207-0.027344 19.199-7.6562 37.602-21.219 51.191-13.559 13.59-31.949 21.258-51.145 21.328-19.227-0.035157-37.656-7.6836-51.25-21.277-13.598-13.59-21.254-32.016-21.293-51.242-0.074219 19.219-7.7422 37.625-21.336 51.211s-32.004 21.242-51.223 21.309c-19.215-0.066407-37.621-7.7305-51.211-21.312-13.59-13.586-21.258-31.992-21.332-51.207-0.039062 19.227-7.6992 37.656-21.297 51.246-13.598 13.594-32.031 21.242-51.258 21.273-19.215-0.066407-37.625-7.7305-51.215-21.312-13.59-13.586-21.254-31.992-21.328-51.207v-231.16zm-472.64 550.04v-160.13h233.82v160.13z" fill-rule="evenodd"/>
</svg>
