<?xml version="1.0" encoding="UTF-8"?>
<svg width="1200pt" height="1200pt" version="1.1" viewBox="0 0 1200 1200" xmlns="http://www.w3.org/2000/svg">
 <g>
  <path d="m483.58 614.22c-20.621 0-37.301 16.66-37.301 37.281 0 20.578 16.68 37.301 37.301 37.301s37.281-16.719 37.281-37.301c0-20.621-16.66-37.281-37.281-37.281zm0 69.562c-16.141 0-29.199-13.059-29.199-29.199 0-16.121 13.059-29.16 29.199-29.16 16.121 0 29.16 13.039 29.16 29.16 0 16.137-13.059 29.199-29.16 29.199z"/>
  <path d="m399.38 560.38c-20.602 0-37.262 16.68-37.262 37.301 0 20.621 16.66 37.262 37.262 37.262 20.621 0 37.32-16.641 37.32-37.262 0-20.621-16.699-37.301-37.32-37.301zm0 69.543c-16.121 0-29.16-13.039-29.16-29.16 0-16.121 13.039-29.199 29.16-29.199 16.141 0 29.18 13.078 29.18 29.199 0 16.117-13.059 29.16-29.18 29.16z"/>
  <path d="m483.58 514.92c-20.621 0-37.301 16.68-37.301 37.281s16.68 37.301 37.301 37.301 37.281-16.699 37.281-37.301-16.66-37.281-37.281-37.281zm0 69.559c-16.141 0-29.199-13.059-29.199-29.16 0-16.141 13.059-29.16 29.199-29.16 16.121 0 29.16 13.02 29.16 29.16 0 16.078-13.059 29.16-29.16 29.16z"/>
  <path d="m621.96 682.12c0-20.621-16.66-37.301-37.281-37.301-20.578 0-37.301 16.68-37.301 37.301 0 20.602 16.719 37.281 37.301 37.281 20.621 0.019531 37.281-16.664 37.281-37.281zm-37.301 32.277c-16.141 0-29.18-13.039-29.18-29.18 0-16.102 13.039-29.16 29.18-29.16 16.121 0 29.18 13.059 29.18 29.16 0 16.121-13.059 29.18-29.18 29.18z"/>
  <path d="m608.32 589.54c0-20.621-16.68-37.32-37.281-37.32-20.621 0-37.301 16.699-37.301 37.32 0 20.621 16.68 37.281 37.301 37.281 20.602 0 37.281-16.66 37.281-37.281zm-66.441 3.082c0-16.102 13-29.16 29.16-29.16 16.121 0 29.18 13.059 29.18 29.16 0 16.121-13.059 29.18-29.18 29.18-16.16 0-29.16-13.062-29.16-29.18z"/>
  <path d="m863.14 745.74h-80.84c120.58-65.121 202.76-192.66 202.76-339.02-0.003906-212.3-172.76-385.06-385.06-385.06s-385.06 172.76-385.06 385.06c0 146.36 82.16 273.9 202.76 339.02h-80.84c-10.18 0-18.422 8.2188-18.422 18.398v82.859c0 10.18 8.2383 18.398 18.422 18.398h526.28c10.18 0 18.422-8.2188 18.422-18.398v-82.859c-0.007812-10.176-8.2461-18.398-18.426-18.398zm-592.96-339.02c0-181.88 147.94-329.82 329.82-329.82s329.82 147.94 329.82 329.82c0 181.88-147.94 329.82-329.82 329.82s-329.82-147.94-329.82-329.82z"/>
  <path d="m704 871.54h-208c-5.5 0-10.699 2.4414-14.199 6.6797-3.4805 4.2188-4.9219 9.7812-3.8789 15.16l51.359 269.98c1.6602 8.6992 9.2383 14.98 18.078 14.98h104.8c8.8008 0 16.379-6.2812 18.078-14.941l51.84-269.98c1.0391-5.3984-0.39844-10.961-3.8789-15.199s-8.6797-6.6797-14.199-6.6797z"/>
 </g>
</svg>
