<?xml version="1.0" encoding="UTF-8"?>
<svg width="1200pt" height="1200pt" version="1.1" viewBox="0 0 1200 1200" xmlns="http://www.w3.org/2000/svg">
 <path d="m599.95 0c-124.05 0-225 100.95-225 225v75h75v-75c0-82.727 67.273-150 150-150 39.75 0 78.449 15.898 106.2 43.727 28.273 28.273 43.801 66 43.801 106.27v75h75v-75c0-60.301-23.398-116.85-65.773-159.23-41.699-41.773-99.75-65.773-159.23-65.773zm225 300v187.5c0 20.699-16.801 37.5-37.5 37.5-20.699 0-37.5-16.801-37.5-37.5v-187.5h-300v187.5c0 20.699-16.801 37.5-37.5 37.5-20.699 0-37.5-16.801-37.5-37.5v-187.5h-112.5c-19.426 0-35.625 14.773-37.352 34.125l-63.824 702.3c-3.8242 41.926 10.273 83.699 38.625 114.75 28.352 31.051 68.699 48.824 110.77 48.824h578.62c42 0 82.352-17.773 110.7-48.75 28.426-31.051 42.449-72.898 38.773-114.75l-63.977-702.38c-1.7266-19.352-17.926-34.125-37.352-34.125zm-225 328.12c20.699 0 37.5 16.801 37.5 37.5v121.88h121.88c20.699 0 37.5 16.801 37.5 37.5s-16.801 37.5-37.5 37.5h-121.88v121.88c0 20.699-16.801 37.5-37.5 37.5-20.699 0-37.5-16.801-37.5-37.5v-121.88h-121.88c-20.699 0-37.5-16.801-37.5-37.5s16.801-37.5 37.5-37.5h121.88v-121.88c0-20.699 16.801-37.5 37.5-37.5z"/>
</svg>
