<?xml version="1.0" encoding="UTF-8"?>
<svg width="1200pt" height="1200pt" version="1.1" viewBox="0 0 1200 1200" xmlns="http://www.w3.org/2000/svg">
 <g>
  <path d="m1140 897.78c0 16.566-13.43 30-30 30s-30-13.434-30-30c0-16.57 13.43-30 30-30s30 13.43 30 30"/>
  <path d="m709.7 364.31 11.242-9.0703-0.73047-13.715 48.238-49.656s0.48047-38.293-12.301-73.285c-12.758-35.004-33.77-96-33.77-96s0-9.2266-9.6016-30.863c0 0 3.9102-20.207-11.316-27.66-15.277-7.4531-53.23-3.5508-63.133 2.832-9.9727 6.3828-39.719 12.91-38.461 21.887 0.625 4.4883 2.1133 27.383 14.734 28.129 19.02 1.1289 28.68 11.965 36.816 20.555 0 0 5.6875 25.535-1.0547 51.07-6.7422 25.535 0 36.516 0 36.516l-29.062 67.379s4.2344-24.828-2.4844-37.945c-6.7305-13.129-15.637-36.516-15.637-36.516s8.9414-4.6797 27.707-2.9023c4.7383-7.5469-37.512-18.277-37.512-18.277s-23.52-34.98-61.367-16.547c-37.777 18.445-51.035 51.551-29.773 90.793 0 0 26.051 34.535 38.785 57.707 0 0-24.59 11.809-22.703 20.809 1.9062 8.9883 17.977 31.199 17.977 31.199s9 12.301 13.234 31.691c4.2461 19.379 23.172 40.668 23.172 40.668s12.816 20.605 25.738 40.836c10.738 16.883 16.297 14.965 14.867 42.602-1.4297 27.66-11.34 51.73-19.152 68.762-7.7773 17.016-13.777 24.73-0.35938 106.43l-30.266 64.715s-27.445 49.176-33.098 73.754c-5.6875 24.602-32.148 94.57-42.59 100.25-10.379 5.6641-33.059 1.9062-42.551 30.301-9.4219 28.344-6.1211 28.105-18.887 50.09-12.758 21.984-24.312 39.238-22.441 72.359 6.168 23.148 29.531 27.023 29.531 27.023s23.676 0.42188 32.16-23.242c0 0 12.289-38.773 21.758-38.773 9.4453 0 28.355-0.49219 28.355-0.49219s71.41-103.99 100.73-118.19c29.34-14.207 81.312-160.79 81.312-160.79l-0.92578 75.66s-17.27 26.723-10.176 70.691-21.996 111.37-21.996 111.37 4.7539 10.871-2.3633 29.785c-7.0547 18.887-13.922 18.434-13.922 18.434s-9.5039 21.875-11.449 39.875c-0.74219 7.0938 29.09 6.0469 49.738 2.1016 26.242-4.9688 69.539 3.0859 69.539 3.0859s44.41 3.2266 47.543-13.141c3.5039-18.301-68.93-25.922-72.023-32.316-0.75781-1.6211 0.64844-7.4141 4.4883-15.805 1.4883-3.3008 14.543-6.8867 16.453-10.754 12.574-25.488 20.543-59.578 20.543-59.578s14.172-12.086 17.711-17.746c3.5625-5.6758 3.5625-87.949 20.578-104.96 17.039-17.016 8.6523-161.82 8.6523-161.82s5.6758-97.246 0-103.88c-5.6758-6.625-24.625-91.164-24.625-91.164s-0.25391-7.8242-32.41-68.363c-32.137-60.547-53.461-95.898-53.461-95.898z"/>
  <path d="m614.59 110.04-523.79 158.18s1.9336 41.605-16.078 43.5c-17.953 1.8945-19.836-53.891-3.7578-54.84 16.117-0.94531 533.22-160.08 533.22-160.08z"/>
 </g>
</svg>
