<?xml version="1.0" encoding="UTF-8"?>
<svg width="1200pt" height="1200pt" version="1.1" viewBox="0 0 1200 1200" xmlns="http://www.w3.org/2000/svg">
 <path d="m645.91 113.63 113.95 251.52c5.6992 12.602 14.059 22.902 24.32 30.359 10.316 7.4961 22.707 12.273 36.453 13.805l274.44 30.645c13.066 1.4609 23.812 7.4688 31.562 15.961 4.9609 5.3711 8.6016 11.75 10.969 19.035 2.125 7.0312 2.793 13.977 2.0391 20.805-1.2461 11.383-6.4648 22.562-16.199 31.465l-204.01 186.18c-10.219 9.3125-17.449 20.453-21.375 32.555-3.9414 12.117-4.6484 25.398-1.8555 38.949l55.645 270.47c2.6523 12.871 0.25391 24.961-5.3984 34.91-3.6133 6.3633-8.5469 11.836-14.316 16.016l-1.418 0.92188c-5.4727 3.7266-11.691 6.3906-18.211 7.7109-11.227 2.2969-23.441 0.83594-34.867-5.6562l-240.01-136.52c-12.004-6.8164-24.848-10.246-37.629-10.246-12.785 0-25.625 3.4297-37.629 10.246l-240.01 136.52c-11.422 6.4922-23.641 7.9531-34.867 5.6562-7.1875-1.4727-13.902-4.4805-19.629-8.6328-5.7695-4.1797-10.699-9.6523-14.316-16.016-5.6562-9.9492-8.0508-22.039-5.3984-34.91l55.645-270.47c2.793-13.551 2.082-26.832-1.8555-38.949-3.9258-12.105-11.156-23.246-21.375-32.555l-205.24-187.34c-8.9453-8.7031-13.75-19.418-14.969-30.289-0.80859-7.2266-0.015625-14.543 2.1953-21.332 2.168-6.6914 5.8398-13.066 10.801-18.512 7.6836-8.4883 18.496-14.527 31.578-15.973l274.44-30.645c13.75-1.5312 26.164-6.3203 36.453-13.805 10.277-7.457 18.625-17.758 24.32-30.359l113.95-251.52c5.4141-11.934 14.457-20.324 24.875-25.031 6.6758-3.0312 13.875-4.5508 21.035-4.5508 7.1562 0 14.359 1.5156 21.035 4.5508 10.418 4.707 19.461 13.098 24.875 25.031z" fill="#45dedf"/>
</svg>
