<?xml version="1.0" encoding="UTF-8"?>
<svg width="1200pt" height="1200pt" version="1.1" viewBox="0 0 1200 1200" xmlns="http://www.w3.org/2000/svg">
 <path d="m645.91 113.63 113.95 251.52c5.6992 12.602 14.059 22.902 24.32 30.359 10.316 7.4961 22.707 12.273 36.453 13.805l274.44 30.645c13.066 1.4609 23.812 7.4688 31.562 15.961 4.9609 5.3711 8.6016 11.75 10.828 18.523l0.29687 1.0195c1.9688 6.5195 2.6367 13.465 1.8867 20.297-1.2461 11.383-6.4648 22.562-16.199 31.465l-204.01 186.18c-10.219 9.3125-17.449 20.453-21.375 32.555-3.9414 12.117-4.6484 25.398-1.8555 38.949l55.645 270.47c2.6523 12.871 0.25391 24.961-5.3984 34.91-3.6133 6.3633-8.5469 11.836-14.316 16.016l-1.418 0.92188c-5.4727 3.7266-11.691 6.3906-18.211 7.7109-11.227 2.2969-23.441 0.83594-34.867-5.6562l-240.01-136.52c-12.004-6.8164-24.848-10.246-37.629-10.246-12.785 0-25.625 3.4297-37.629 10.246l-240.01 136.52c-11.422 6.4922-23.641 7.9531-34.867 5.6562-7.1875-1.4727-13.902-4.4805-19.629-8.6328-5.7695-4.1797-10.699-9.6523-14.316-16.016-5.6562-9.9492-8.0508-22.039-5.3984-34.91l55.645-270.47c2.793-13.551 2.082-26.832-1.8555-38.949-3.9258-12.105-11.156-23.246-21.375-32.555l-205.24-187.34c-8.9453-8.7031-13.75-19.418-14.969-30.289-0.80859-7.2266-0.015625-14.543 2.1953-21.332 2.168-6.6914 5.8398-13.066 10.801-18.512 7.6836-8.4883 18.496-14.527 31.578-15.973l274.44-30.645c13.75-1.5312 26.164-6.3203 36.453-13.805 10.277-7.457 18.625-17.758 24.32-30.359l113.95-251.52c5.4141-11.934 14.457-20.324 24.875-25.031 6.6758-3.0312 13.875-4.5508 21.035-4.5508 7.1562 0 14.359 1.5156 21.035 4.5508 10.418 4.707 19.461 13.098 24.875 25.031zm81.184 266.29-113.95-251.52c-1.5312-3.375-4.0391-5.7539-6.875-7.0312-1.9258-0.87891-4.082-1.3164-6.2656-1.3164s-4.3359 0.4375-6.2656 1.3164c-2.8359 1.2773-5.3438 3.6562-6.875 7.0312l-113.95 251.52c-8.332 18.41-20.68 33.59-36 44.703-15.266 11.113-33.492 18.156-53.605 20.41l-274.44 30.645c-3.7852 0.41016-6.8594 2.0977-8.9727 4.4062-1.418 1.4727-2.4961 3.3867-3.1602 5.4727-0.65234 2.0273-0.89453 4.1953-0.66797 6.2773 0.32422 2.918 1.6289 5.8555 3.9844 8.293l204.69 186.69c14.926 13.621 25.539 30.047 31.379 48.035 5.8242 17.93 6.9023 37.418 2.8203 57.23l-55.645 270.47c-0.76562 3.7695-0.11328 7.2422 1.4609 10.02 1.0078 1.7734 2.4648 3.375 4.1953 4.6211 1.7578 1.2773 3.7266 2.1953 5.7109 2.5938 3.1328 0.63672 6.6328 0.18359 9.9766-1.7148l240.01-136.52c17.633-10.008 36.496-15.039 55.348-15.039 18.852 0 37.715 5.0312 55.348 15.039l240.01 136.52c3.3438 1.8984 6.8477 2.3516 9.9766 1.7148 1.7422-0.33984 3.4297-1.0352 4.9023-1.9844l0.80859-0.60938c1.7305-1.2461 3.1875-2.8477 4.1953-4.6211 1.5742-2.7773 2.2266-6.25 1.4609-10.02l-55.645-270.47c-4.082-19.812-3.0039-39.301 2.8203-57.23 5.8398-17.984 16.457-34.414 31.379-48.035l204.01-186.11c2.8047-2.5078 4.3086-5.6992 4.6641-8.8867 0.4375-4.293-0.90625-8.5195-3.8125-11.723-2.0703-2.3242-5.1602-3.9961-8.9844-4.4219l-274.44-30.645c-20.113-2.2539-38.309-9.2969-53.605-20.41-15.309-11.125-27.668-26.293-36-44.703z" fill="#45dedf"/>
</svg>
